solid CATIA STL
  facet normal  0.000000e+000  0.000000e+000  1.000000e+000
    outer loop
      vertex  4.719317e-001 -1.999443e+001  1.000000e+002
      vertex  5.630791e+000 -1.919099e+001  1.000000e+002
      vertex -4.719089e+000 -1.943528e+001  1.000000e+002
    endloop
  endfacet
  facet normal  0.000000e+000  0.000000e+000  1.000000e+000
    outer loop
      vertex -4.719317e-001  1.999443e+001  1.000000e+002
      vertex -5.630791e+000  1.919099e+001  1.000000e+002
      vertex  4.719089e+000  1.943528e+001  1.000000e+002
    endloop
  endfacet
  facet normal  0.000000e+000  0.000000e+000  1.000000e+000
    outer loop
      vertex  4.719089e+000  1.943528e+001  1.000000e+002
      vertex -5.630791e+000  1.919099e+001  1.000000e+002
      vertex -1.040592e+001  1.707972e+001  1.000000e+002
    endloop
  endfacet
  facet normal  0.000000e+000  0.000000e+000  9.999999e-001
    outer loop
      vertex  4.719089e+000  1.943528e+001  1.000000e+002
      vertex -1.040592e+001  1.707972e+001  1.000000e+002
      vertex  9.588511e+000  1.755165e+001  1.000000e+002
    endloop
  endfacet
  facet normal  0.000000e+000  0.000000e+000  1.000000e+000
    outer loop
      vertex  9.588511e+000  1.755165e+001  1.000000e+002
      vertex -1.040592e+001  1.707972e+001  1.000000e+002
      vertex -1.447190e+001  1.380449e+001  1.000000e+002
    endloop
  endfacet
  facet normal  0.000000e+000  0.000000e+000  1.000000e+000
    outer loop
      vertex  9.588511e+000  1.755165e+001  1.000000e+002
      vertex -1.447190e+001  1.380449e+001  1.000000e+002
      vertex  1.380449e+001  1.447190e+001  1.000000e+002
    endloop
  endfacet
  facet normal  0.000000e+000  0.000000e+000  1.000000e+000
    outer loop
      vertex  1.380449e+001  1.447190e+001  1.000000e+002
      vertex -1.447190e+001  1.380449e+001  1.000000e+002
      vertex -1.755165e+001  9.588511e+000  1.000000e+002
    endloop
  endfacet
  facet normal  0.000000e+000  0.000000e+000  1.000000e+000
    outer loop
      vertex  1.380449e+001  1.447190e+001  1.000000e+002
      vertex -1.755165e+001  9.588511e+000  1.000000e+002
      vertex  1.707972e+001  1.040592e+001  1.000000e+002
    endloop
  endfacet
  facet normal  0.000000e+000  0.000000e+000  1.000000e+000
    outer loop
      vertex  1.707972e+001  1.040592e+001  1.000000e+002
      vertex -1.755165e+001  9.588511e+000  1.000000e+002
      vertex -1.943528e+001  4.719089e+000  1.000000e+002
    endloop
  endfacet
  facet normal  0.000000e+000  0.000000e+000  1.000000e+000
    outer loop
      vertex  1.707972e+001  1.040592e+001  1.000000e+002
      vertex -1.943528e+001  4.719089e+000  1.000000e+002
      vertex  1.919099e+001  5.630791e+000  1.000000e+002
    endloop
  endfacet
  facet normal  0.000000e+000  0.000000e+000  1.000000e+000
    outer loop
      vertex  1.919099e+001  5.630791e+000  1.000000e+002
      vertex -1.943528e+001  4.719089e+000  1.000000e+002
      vertex -1.999443e+001 -4.719317e-001  1.000000e+002
    endloop
  endfacet
  facet normal  0.000000e+000  0.000000e+000  9.999999e-001
    outer loop
      vertex  1.919099e+001  5.630791e+000  1.000000e+002
      vertex -1.999443e+001 -4.719317e-001  1.000000e+002
      vertex  1.999443e+001  4.719317e-001  1.000000e+002
    endloop
  endfacet
  facet normal  0.000000e+000  0.000000e+000  9.999999e-001
    outer loop
      vertex  1.999443e+001  4.719317e-001  1.000000e+002
      vertex -1.999443e+001 -4.719317e-001  1.000000e+002
      vertex -1.919099e+001 -5.630791e+000  1.000000e+002
    endloop
  endfacet
  facet normal  0.000000e+000  0.000000e+000  1.000000e+000
    outer loop
      vertex  1.999443e+001  4.719317e-001  1.000000e+002
      vertex -1.919099e+001 -5.630791e+000  1.000000e+002
      vertex  1.943528e+001 -4.719089e+000  1.000000e+002
    endloop
  endfacet
  facet normal  0.000000e+000  0.000000e+000  1.000000e+000
    outer loop
      vertex  1.943528e+001 -4.719089e+000  1.000000e+002
      vertex -1.919099e+001 -5.630791e+000  1.000000e+002
      vertex -1.707972e+001 -1.040592e+001  1.000000e+002
    endloop
  endfacet
  facet normal  0.000000e+000  0.000000e+000  1.000000e+000
    outer loop
      vertex  1.943528e+001 -4.719089e+000  1.000000e+002
      vertex -1.707972e+001 -1.040592e+001  1.000000e+002
      vertex  1.755165e+001 -9.588511e+000  1.000000e+002
    endloop
  endfacet
  facet normal  0.000000e+000  0.000000e+000  1.000000e+000
    outer loop
      vertex  1.755165e+001 -9.588511e+000  1.000000e+002
      vertex -1.707972e+001 -1.040592e+001  1.000000e+002
      vertex -1.380449e+001 -1.447190e+001  1.000000e+002
    endloop
  endfacet
  facet normal  0.000000e+000  0.000000e+000  1.000000e+000
    outer loop
      vertex  1.755165e+001 -9.588511e+000  1.000000e+002
      vertex -1.380449e+001 -1.447190e+001  1.000000e+002
      vertex  1.447190e+001 -1.380449e+001  1.000000e+002
    endloop
  endfacet
  facet normal  0.000000e+000  0.000000e+000  1.000000e+000
    outer loop
      vertex  1.447190e+001 -1.380449e+001  1.000000e+002
      vertex -1.380449e+001 -1.447190e+001  1.000000e+002
      vertex -9.588511e+000 -1.755165e+001  1.000000e+002
    endloop
  endfacet
  facet normal  0.000000e+000  0.000000e+000  1.000000e+000
    outer loop
      vertex  1.447190e+001 -1.380449e+001  1.000000e+002
      vertex -9.588511e+000 -1.755165e+001  1.000000e+002
      vertex  1.040592e+001 -1.707972e+001  1.000000e+002
    endloop
  endfacet
  facet normal  0.000000e+000  0.000000e+000  9.999999e-001
    outer loop
      vertex  1.040592e+001 -1.707972e+001  1.000000e+002
      vertex -9.588511e+000 -1.755165e+001  1.000000e+002
      vertex -4.719089e+000 -1.943528e+001  1.000000e+002
    endloop
  endfacet
  facet normal  0.000000e+000  0.000000e+000  1.000000e+000
    outer loop
      vertex  1.040592e+001 -1.707972e+001  1.000000e+002
      vertex -4.719089e+000 -1.943528e+001  1.000000e+002
      vertex  5.630791e+000 -1.919099e+001  1.000000e+002
    endloop
  endfacet
  facet normal  0.000000e+000  0.000000e+000 -1.000000e+000
    outer loop
      vertex -4.719089e+000 -1.943528e+001  0.000000e+000
      vertex  5.630791e+000 -1.919099e+001  0.000000e+000
      vertex  4.719317e-001 -1.999443e+001  0.000000e+000
    endloop
  endfacet
  facet normal  0.000000e+000  0.000000e+000 -1.000000e+000
    outer loop
      vertex  5.630791e+000 -1.919099e+001  0.000000e+000
      vertex -4.719089e+000 -1.943528e+001  0.000000e+000
      vertex  1.040592e+001 -1.707972e+001  0.000000e+000
    endloop
  endfacet
  facet normal  0.000000e+000  0.000000e+000 -9.999999e-001
    outer loop
      vertex  1.040592e+001 -1.707972e+001  0.000000e+000
      vertex -4.719089e+000 -1.943528e+001  0.000000e+000
      vertex -9.588511e+000 -1.755165e+001  0.000000e+000
    endloop
  endfacet
  facet normal  0.000000e+000  0.000000e+000 -1.000000e+000
    outer loop
      vertex  1.040592e+001 -1.707972e+001  0.000000e+000
      vertex -9.588511e+000 -1.755165e+001  0.000000e+000
      vertex  1.447190e+001 -1.380449e+001  0.000000e+000
    endloop
  endfacet
  facet normal  0.000000e+000  0.000000e+000 -1.000000e+000
    outer loop
      vertex  1.447190e+001 -1.380449e+001  0.000000e+000
      vertex -9.588511e+000 -1.755165e+001  0.000000e+000
      vertex -1.380449e+001 -1.447190e+001  0.000000e+000
    endloop
  endfacet
  facet normal  0.000000e+000  0.000000e+000 -1.000000e+000
    outer loop
      vertex  1.447190e+001 -1.380449e+001  0.000000e+000
      vertex -1.380449e+001 -1.447190e+001  0.000000e+000
      vertex  1.755165e+001 -9.588511e+000  0.000000e+000
    endloop
  endfacet
  facet normal  0.000000e+000  0.000000e+000 -1.000000e+000
    outer loop
      vertex  1.755165e+001 -9.588511e+000  0.000000e+000
      vertex -1.380449e+001 -1.447190e+001  0.000000e+000
      vertex -1.707972e+001 -1.040592e+001  0.000000e+000
    endloop
  endfacet
  facet normal  0.000000e+000  0.000000e+000 -1.000000e+000
    outer loop
      vertex  1.755165e+001 -9.588511e+000  0.000000e+000
      vertex -1.707972e+001 -1.040592e+001  0.000000e+000
      vertex  1.943528e+001 -4.719089e+000  0.000000e+000
    endloop
  endfacet
  facet normal  0.000000e+000  0.000000e+000 -1.000000e+000
    outer loop
      vertex  1.943528e+001 -4.719089e+000  0.000000e+000
      vertex -1.707972e+001 -1.040592e+001  0.000000e+000
      vertex -1.919099e+001 -5.630791e+000  0.000000e+000
    endloop
  endfacet
  facet normal  0.000000e+000  0.000000e+000 -1.000000e+000
    outer loop
      vertex  1.943528e+001 -4.719089e+000  0.000000e+000
      vertex -1.919099e+001 -5.630791e+000  0.000000e+000
      vertex  1.999443e+001  4.719317e-001  0.000000e+000
    endloop
  endfacet
  facet normal  0.000000e+000  0.000000e+000 -9.999999e-001
    outer loop
      vertex  1.999443e+001  4.719317e-001  0.000000e+000
      vertex -1.919099e+001 -5.630791e+000  0.000000e+000
      vertex -1.999443e+001 -4.719317e-001  0.000000e+000
    endloop
  endfacet
  facet normal  0.000000e+000  0.000000e+000 -9.999999e-001
    outer loop
      vertex  1.999443e+001  4.719317e-001  0.000000e+000
      vertex -1.999443e+001 -4.719317e-001  0.000000e+000
      vertex  1.919099e+001  5.630791e+000  0.000000e+000
    endloop
  endfacet
  facet normal  0.000000e+000  0.000000e+000 -1.000000e+000
    outer loop
      vertex  1.919099e+001  5.630791e+000  0.000000e+000
      vertex -1.999443e+001 -4.719317e-001  0.000000e+000
      vertex -1.943528e+001  4.719089e+000  0.000000e+000
    endloop
  endfacet
  facet normal  0.000000e+000  0.000000e+000 -1.000000e+000
    outer loop
      vertex  1.919099e+001  5.630791e+000  0.000000e+000
      vertex -1.943528e+001  4.719089e+000  0.000000e+000
      vertex  1.707972e+001  1.040592e+001  0.000000e+000
    endloop
  endfacet
  facet normal  0.000000e+000  0.000000e+000 -1.000000e+000
    outer loop
      vertex  1.707972e+001  1.040592e+001  0.000000e+000
      vertex -1.943528e+001  4.719089e+000  0.000000e+000
      vertex -1.755165e+001  9.588511e+000  0.000000e+000
    endloop
  endfacet
  facet normal  0.000000e+000  0.000000e+000 -1.000000e+000
    outer loop
      vertex  1.707972e+001  1.040592e+001  0.000000e+000
      vertex -1.755165e+001  9.588511e+000  0.000000e+000
      vertex  1.380449e+001  1.447190e+001  0.000000e+000
    endloop
  endfacet
  facet normal  0.000000e+000  0.000000e+000 -1.000000e+000
    outer loop
      vertex  1.380449e+001  1.447190e+001  0.000000e+000
      vertex -1.755165e+001  9.588511e+000  0.000000e+000
      vertex -1.447190e+001  1.380449e+001  0.000000e+000
    endloop
  endfacet
  facet normal  0.000000e+000  0.000000e+000 -1.000000e+000
    outer loop
      vertex  1.380449e+001  1.447190e+001  0.000000e+000
      vertex -1.447190e+001  1.380449e+001  0.000000e+000
      vertex  9.588511e+000  1.755165e+001  0.000000e+000
    endloop
  endfacet
  facet normal  0.000000e+000  0.000000e+000 -1.000000e+000
    outer loop
      vertex  9.588511e+000  1.755165e+001  0.000000e+000
      vertex -1.447190e+001  1.380449e+001  0.000000e+000
      vertex -1.040592e+001  1.707972e+001  0.000000e+000
    endloop
  endfacet
  facet normal  0.000000e+000  0.000000e+000 -9.999999e-001
    outer loop
      vertex  9.588511e+000  1.755165e+001  0.000000e+000
      vertex -1.040592e+001  1.707972e+001  0.000000e+000
      vertex  4.719089e+000  1.943528e+001  0.000000e+000
    endloop
  endfacet
  facet normal  0.000000e+000  0.000000e+000 -1.000000e+000
    outer loop
      vertex  4.719089e+000  1.943528e+001  0.000000e+000
      vertex -1.040592e+001  1.707972e+001  0.000000e+000
      vertex -5.630791e+000  1.919099e+001  0.000000e+000
    endloop
  endfacet
  facet normal  0.000000e+000  0.000000e+000 -1.000000e+000
    outer loop
      vertex  4.719089e+000  1.943528e+001  0.000000e+000
      vertex -5.630791e+000  1.919099e+001  0.000000e+000
      vertex -4.719317e-001  1.999443e+001  0.000000e+000
    endloop
  endfacet
  facet normal -9.326523e-001  3.607764e-001  0.000000e+000
    outer loop
      vertex -1.755165e+001  9.588511e+000  1.000000e+002
      vertex -1.755165e+001  9.588511e+000  0.000000e+000
      vertex -1.943528e+001  4.719089e+000  1.000000e+002
    endloop
  endfacet
  facet normal -9.326523e-001  3.607764e-001  0.000000e+000
    outer loop
      vertex -1.943528e+001  4.719089e+000  1.000000e+002
      vertex -1.755165e+001  9.588511e+000  0.000000e+000
      vertex -1.943528e+001  4.719089e+000  0.000000e+000
    endloop
  endfacet
  facet normal -9.942487e-001  1.070951e-001  0.000000e+000
    outer loop
      vertex -1.943528e+001  4.719089e+000  1.000000e+002
      vertex -1.943528e+001  4.719089e+000  0.000000e+000
      vertex -1.999443e+001 -4.719317e-001  1.000000e+002
    endloop
  endfacet
  facet normal -9.942487e-001  1.070951e-001  0.000000e+000
    outer loop
      vertex -1.999443e+001 -4.719317e-001  1.000000e+002
      vertex -1.943528e+001  4.719089e+000  0.000000e+000
      vertex -1.999443e+001 -4.719317e-001  0.000000e+000
    endloop
  endfacet
  facet normal -9.880888e-001 -1.538845e-001  0.000000e+000
    outer loop
      vertex -1.999443e+001 -4.719317e-001  1.000000e+002
      vertex -1.999443e+001 -4.719317e-001  0.000000e+000
      vertex -1.919099e+001 -5.630791e+000  1.000000e+002
    endloop
  endfacet
  facet normal -9.880888e-001 -1.538845e-001  -0.000000e+000
    outer loop
      vertex -1.919099e+001 -5.630791e+000  1.000000e+002
      vertex -1.999443e+001 -4.719317e-001  0.000000e+000
      vertex -1.919099e+001 -5.630791e+000  0.000000e+000
    endloop
  endfacet
  facet normal -9.145922e-001 -4.043773e-001  0.000000e+000
    outer loop
      vertex -1.919099e+001 -5.630791e+000  1.000000e+002
      vertex -1.919099e+001 -5.630791e+000  0.000000e+000
      vertex -1.707972e+001 -1.040592e+001  1.000000e+002
    endloop
  endfacet
  facet normal -9.145922e-001 -4.043773e-001  -0.000000e+000
    outer loop
      vertex -1.707972e+001 -1.040592e+001  1.000000e+002
      vertex -1.919099e+001 -5.630791e+000  0.000000e+000
      vertex -1.707972e+001 -1.040592e+001  0.000000e+000
    endloop
  endfacet
  facet normal -7.787678e-001 -6.273123e-001  0.000000e+000
    outer loop
      vertex -1.707972e+001 -1.040592e+001  1.000000e+002
      vertex -1.707972e+001 -1.040592e+001  0.000000e+000
      vertex -1.380449e+001 -1.447190e+001  1.000000e+002
    endloop
  endfacet
  facet normal -7.787678e-001 -6.273123e-001  -0.000000e+000
    outer loop
      vertex -1.380449e+001 -1.447190e+001  1.000000e+002
      vertex -1.707972e+001 -1.040592e+001  0.000000e+000
      vertex -1.380449e+001 -1.447190e+001  0.000000e+000
    endloop
  endfacet
  facet normal -5.898715e-001 -8.074971e-001  0.000000e+000
    outer loop
      vertex -1.380449e+001 -1.447190e+001  1.000000e+002
      vertex -1.380449e+001 -1.447190e+001  0.000000e+000
      vertex -9.588511e+000 -1.755165e+001  1.000000e+002
    endloop
  endfacet
  facet normal -5.898715e-001 -8.074971e-001  -0.000000e+000
    outer loop
      vertex -9.588511e+000 -1.755165e+001  1.000000e+002
      vertex -1.380449e+001 -1.447190e+001  0.000000e+000
      vertex -9.588511e+000 -1.755165e+001  0.000000e+000
    endloop
  endfacet
  facet normal -3.607764e-001 -9.326523e-001  0.000000e+000
    outer loop
      vertex -9.588511e+000 -1.755165e+001  1.000000e+002
      vertex -9.588511e+000 -1.755165e+001  0.000000e+000
      vertex -4.719089e+000 -1.943528e+001  1.000000e+002
    endloop
  endfacet
  facet normal -3.607764e-001 -9.326523e-001  -0.000000e+000
    outer loop
      vertex -4.719089e+000 -1.943528e+001  1.000000e+002
      vertex -9.588511e+000 -1.755165e+001  0.000000e+000
      vertex -4.719089e+000 -1.943528e+001  0.000000e+000
    endloop
  endfacet
  facet normal -1.070951e-001 -9.942487e-001  0.000000e+000
    outer loop
      vertex -4.719089e+000 -1.943528e+001  1.000000e+002
      vertex -4.719089e+000 -1.943528e+001  0.000000e+000
      vertex  4.719317e-001 -1.999443e+001  1.000000e+002
    endloop
  endfacet
  facet normal -1.070951e-001 -9.942487e-001  -0.000000e+000
    outer loop
      vertex  4.719317e-001 -1.999443e+001  1.000000e+002
      vertex -4.719089e+000 -1.943528e+001  0.000000e+000
      vertex  4.719317e-001 -1.999443e+001  0.000000e+000
    endloop
  endfacet
  facet normal  1.538845e-001 -9.880888e-001  0.000000e+000
    outer loop
      vertex  4.719317e-001 -1.999443e+001  1.000000e+002
      vertex  4.719317e-001 -1.999443e+001  0.000000e+000
      vertex  5.630791e+000 -1.919099e+001  1.000000e+002
    endloop
  endfacet
  facet normal  1.538845e-001 -9.880888e-001  0.000000e+000
    outer loop
      vertex  5.630791e+000 -1.919099e+001  1.000000e+002
      vertex  4.719317e-001 -1.999443e+001  0.000000e+000
      vertex  5.630791e+000 -1.919099e+001  0.000000e+000
    endloop
  endfacet
  facet normal  4.043773e-001 -9.145922e-001  0.000000e+000
    outer loop
      vertex  5.630791e+000 -1.919099e+001  1.000000e+002
      vertex  5.630791e+000 -1.919099e+001  0.000000e+000
      vertex  1.040592e+001 -1.707972e+001  1.000000e+002
    endloop
  endfacet
  facet normal  4.043773e-001 -9.145922e-001  0.000000e+000
    outer loop
      vertex  1.040592e+001 -1.707972e+001  1.000000e+002
      vertex  5.630791e+000 -1.919099e+001  0.000000e+000
      vertex  1.040592e+001 -1.707972e+001  0.000000e+000
    endloop
  endfacet
  facet normal  6.273123e-001 -7.787678e-001  0.000000e+000
    outer loop
      vertex  1.040592e+001 -1.707972e+001  1.000000e+002
      vertex  1.040592e+001 -1.707972e+001  0.000000e+000
      vertex  1.447190e+001 -1.380449e+001  1.000000e+002
    endloop
  endfacet
  facet normal  6.273123e-001 -7.787678e-001  0.000000e+000
    outer loop
      vertex  1.447190e+001 -1.380449e+001  1.000000e+002
      vertex  1.040592e+001 -1.707972e+001  0.000000e+000
      vertex  1.447190e+001 -1.380449e+001  0.000000e+000
    endloop
  endfacet
  facet normal  8.074971e-001 -5.898715e-001  0.000000e+000
    outer loop
      vertex  1.447190e+001 -1.380449e+001  1.000000e+002
      vertex  1.447190e+001 -1.380449e+001  0.000000e+000
      vertex  1.755165e+001 -9.588511e+000  1.000000e+002
    endloop
  endfacet
  facet normal  8.074971e-001 -5.898715e-001  0.000000e+000
    outer loop
      vertex  1.755165e+001 -9.588511e+000  1.000000e+002
      vertex  1.447190e+001 -1.380449e+001  0.000000e+000
      vertex  1.755165e+001 -9.588511e+000  0.000000e+000
    endloop
  endfacet
  facet normal  9.326523e-001 -3.607764e-001  0.000000e+000
    outer loop
      vertex  1.755165e+001 -9.588511e+000  1.000000e+002
      vertex  1.755165e+001 -9.588511e+000  0.000000e+000
      vertex  1.943528e+001 -4.719089e+000  1.000000e+002
    endloop
  endfacet
  facet normal  9.326523e-001 -3.607764e-001  0.000000e+000
    outer loop
      vertex  1.943528e+001 -4.719089e+000  1.000000e+002
      vertex  1.755165e+001 -9.588511e+000  0.000000e+000
      vertex  1.943528e+001 -4.719089e+000  0.000000e+000
    endloop
  endfacet
  facet normal  9.942487e-001 -1.070951e-001  0.000000e+000
    outer loop
      vertex  1.943528e+001 -4.719089e+000  1.000000e+002
      vertex  1.943528e+001 -4.719089e+000  0.000000e+000
      vertex  1.999443e+001  4.719317e-001  1.000000e+002
    endloop
  endfacet
  facet normal  9.942487e-001 -1.070951e-001  0.000000e+000
    outer loop
      vertex  1.999443e+001  4.719317e-001  1.000000e+002
      vertex  1.943528e+001 -4.719089e+000  0.000000e+000
      vertex  1.999443e+001  4.719317e-001  0.000000e+000
    endloop
  endfacet
  facet normal  9.880888e-001  1.538845e-001  -0.000000e+000
    outer loop
      vertex  1.999443e+001  4.719317e-001  1.000000e+002
      vertex  1.999443e+001  4.719317e-001  0.000000e+000
      vertex  1.919099e+001  5.630791e+000  1.000000e+002
    endloop
  endfacet
  facet normal  9.880888e-001  1.538845e-001  0.000000e+000
    outer loop
      vertex  1.919099e+001  5.630791e+000  1.000000e+002
      vertex  1.999443e+001  4.719317e-001  0.000000e+000
      vertex  1.919099e+001  5.630791e+000  0.000000e+000
    endloop
  endfacet
  facet normal  9.145922e-001  4.043773e-001  -0.000000e+000
    outer loop
      vertex  1.919099e+001  5.630791e+000  1.000000e+002
      vertex  1.919099e+001  5.630791e+000  0.000000e+000
      vertex  1.707972e+001  1.040592e+001  1.000000e+002
    endloop
  endfacet
  facet normal  9.145922e-001  4.043773e-001  0.000000e+000
    outer loop
      vertex  1.707972e+001  1.040592e+001  1.000000e+002
      vertex  1.919099e+001  5.630791e+000  0.000000e+000
      vertex  1.707972e+001  1.040592e+001  0.000000e+000
    endloop
  endfacet
  facet normal  7.787678e-001  6.273123e-001  -0.000000e+000
    outer loop
      vertex  1.707972e+001  1.040592e+001  1.000000e+002
      vertex  1.707972e+001  1.040592e+001  0.000000e+000
      vertex  1.380449e+001  1.447190e+001  1.000000e+002
    endloop
  endfacet
  facet normal  7.787678e-001  6.273123e-001  0.000000e+000
    outer loop
      vertex  1.380449e+001  1.447190e+001  1.000000e+002
      vertex  1.707972e+001  1.040592e+001  0.000000e+000
      vertex  1.380449e+001  1.447190e+001  0.000000e+000
    endloop
  endfacet
  facet normal  5.898715e-001  8.074971e-001  -0.000000e+000
    outer loop
      vertex  1.380449e+001  1.447190e+001  1.000000e+002
      vertex  1.380449e+001  1.447190e+001  0.000000e+000
      vertex  9.588511e+000  1.755165e+001  1.000000e+002
    endloop
  endfacet
  facet normal  5.898715e-001  8.074971e-001  0.000000e+000
    outer loop
      vertex  9.588511e+000  1.755165e+001  1.000000e+002
      vertex  1.380449e+001  1.447190e+001  0.000000e+000
      vertex  9.588511e+000  1.755165e+001  0.000000e+000
    endloop
  endfacet
  facet normal  3.607764e-001  9.326523e-001  -0.000000e+000
    outer loop
      vertex  9.588511e+000  1.755165e+001  1.000000e+002
      vertex  9.588511e+000  1.755165e+001  0.000000e+000
      vertex  4.719089e+000  1.943528e+001  1.000000e+002
    endloop
  endfacet
  facet normal  3.607764e-001  9.326523e-001  0.000000e+000
    outer loop
      vertex  4.719089e+000  1.943528e+001  1.000000e+002
      vertex  9.588511e+000  1.755165e+001  0.000000e+000
      vertex  4.719089e+000  1.943528e+001  0.000000e+000
    endloop
  endfacet
  facet normal  1.070951e-001  9.942487e-001  -0.000000e+000
    outer loop
      vertex  4.719089e+000  1.943528e+001  1.000000e+002
      vertex  4.719089e+000  1.943528e+001  0.000000e+000
      vertex -4.719317e-001  1.999443e+001  1.000000e+002
    endloop
  endfacet
  facet normal  1.070951e-001  9.942487e-001  0.000000e+000
    outer loop
      vertex -4.719317e-001  1.999443e+001  1.000000e+002
      vertex  4.719089e+000  1.943528e+001  0.000000e+000
      vertex -4.719317e-001  1.999443e+001  0.000000e+000
    endloop
  endfacet
  facet normal -1.538845e-001  9.880888e-001  0.000000e+000
    outer loop
      vertex -4.719317e-001  1.999443e+001  1.000000e+002
      vertex -4.719317e-001  1.999443e+001  0.000000e+000
      vertex -5.630791e+000  1.919099e+001  1.000000e+002
    endloop
  endfacet
  facet normal -1.538845e-001  9.880888e-001  0.000000e+000
    outer loop
      vertex -5.630791e+000  1.919099e+001  1.000000e+002
      vertex -4.719317e-001  1.999443e+001  0.000000e+000
      vertex -5.630791e+000  1.919099e+001  0.000000e+000
    endloop
  endfacet
  facet normal -4.043773e-001  9.145922e-001  0.000000e+000
    outer loop
      vertex -5.630791e+000  1.919099e+001  1.000000e+002
      vertex -5.630791e+000  1.919099e+001  0.000000e+000
      vertex -1.040592e+001  1.707972e+001  1.000000e+002
    endloop
  endfacet
  facet normal -4.043773e-001  9.145922e-001  0.000000e+000
    outer loop
      vertex -1.040592e+001  1.707972e+001  1.000000e+002
      vertex -5.630791e+000  1.919099e+001  0.000000e+000
      vertex -1.040592e+001  1.707972e+001  0.000000e+000
    endloop
  endfacet
  facet normal -6.273123e-001  7.787678e-001  0.000000e+000
    outer loop
      vertex -1.040592e+001  1.707972e+001  1.000000e+002
      vertex -1.040592e+001  1.707972e+001  0.000000e+000
      vertex -1.447190e+001  1.380449e+001  1.000000e+002
    endloop
  endfacet
  facet normal -6.273123e-001  7.787678e-001  0.000000e+000
    outer loop
      vertex -1.447190e+001  1.380449e+001  1.000000e+002
      vertex -1.040592e+001  1.707972e+001  0.000000e+000
      vertex -1.447190e+001  1.380449e+001  0.000000e+000
    endloop
  endfacet
  facet normal -8.074971e-001  5.898715e-001  0.000000e+000
    outer loop
      vertex -1.447190e+001  1.380449e+001  1.000000e+002
      vertex -1.447190e+001  1.380449e+001  0.000000e+000
      vertex -1.755165e+001  9.588511e+000  1.000000e+002
    endloop
  endfacet
  facet normal -8.074971e-001  5.898715e-001  0.000000e+000
    outer loop
      vertex -1.755165e+001  9.588511e+000  1.000000e+002
      vertex -1.447190e+001  1.380449e+001  0.000000e+000
      vertex -1.755165e+001  9.588511e+000  0.000000e+000
    endloop
  endfacet
endsolid CATIA STL
