**ABCDEFGHIJKLMNOPQRSTUVWXYZabcdefghijklmnopqrstuvwxyz**************************
**PARASOLID !"#$%&'()*+,-./:;<=>?@[\]^_`{|}~0123456789**************************
**PART1;
MC=AMD64;
MC_MODEL=Intel64 Family 6 Model 42 Stepping 7, GenuineIntel;
MC_ID=unknown;
OS=Windows_NT;
OS_RELEASE=unknown;
FRU=Parasolid Version 27.0, build 207,  1-23-2015;
APPL=SOLIDWORKS 2015-2015168;
SITE=;
USER=unknown;
FORMAT=text;
GUISE=transmit;
KEY=Box;
FILE=Box.x_t;
DATE=Wed Sep 13 09:03:56 2017;
**PART2;
SCH=SCH_2700207_26105;
USFLD_SIZE=0;
**PART3;
**END_OF_HEADER*****************************************************************
T51 : TRANSMIT FILE created by modeller version 270020723 SCH_2700207_26105_1300
6196 0 12 30 CCCCCCCCCCCCCDI5 owner1040 0 CCCCCCCCCA13 boundary_mesh1006 0 A16 i
ndex_map_offset0 0 1 dA9 index_map82 0 A17 node_id_index_map82 0 A20 schema_embe
dding_map82 0 A5 child12 0 A14 lowest_node_id0 0 1 dZ1 191 2 3 0 0 0 0 1e3 1e-8
 0 4 0 1 0 1 1 5 6 7 8 9 10 11 0 0 0 0 0 0 0 81 255 2 2 132 12 1 0 0 0 0 13 0 70
 11 CI9 list_type0 0 1 uI10 notransmit0 0 1 lCCCDCCDI12 finger_index0 0 1 dI12 f
inger_block1012 0 CZ3 0 4 T1 0 0 3 20 1 14 14 13 255 5 94 0 1 0 15 0 0 16 0 50 2
55 6 93 0 15 17 0 0 +-.005 .005 -.005 1 0 -867361737988404e-31 -867361737988404e
-31 0 -1 30 255 7 89 0 10 18 0 0 +-.005 .005 .005 0 -1 0 29 255 8 70 0 19 20 0 -
.005 -.005 -.005 19 8 CCCCCCCA5 owner12 0 Z9 28 0 1 16 0 21 V0 16 255 10 77 0 ?2
2 0 23 7 0 0 1 18 255 11 25 0 24 0 25 26 ?1 17 255 24 0 27 28 29 11 30 31 0 32 +
18 25 22 0 29 11 33 34 ?1 29 26 27 0 11 34 35 -.005 .005 -.005 29 34 24 0 25 36
 26 .005 .005 -.005 29 35 73 0 37 26 38 -.005 -.005 .005 18 37 64 0 39 40 0 35 ?
1 29 38 72 0 40 35 20 .005 -.005 .005 18 40 63 0 41 42 37 38 ?1 29 20 71 0 42 38
 8 .005 -.005 -.005 18 42 62 0 43 19 40 20 ?1 17 43 0 44 45 46 42 47 48 0 49 +18
 19 61 0 50 51 42 8 ?1 17 50 0 52 32 49 19 53 54 0 55 +18 51 16 0 56 33 19 57 ?1
 17 56 0 58 22 59 51 60 61 0 28 -18 33 19 0 60 25 51 36 ?1 29 57 18 0 51 0 36 -.
005 .005 .005 29 36 21 0 33 57 34 .005 .005 .005 17 60 0 27 29 28 33 56 61 0 59
 +15 255 27 3 0 28 62 0 17 29 0 27 24 60 25 63 64 0 45 +17 28 0 27 60 24 51 65 6
6 0 67 +16 61 7 0 ?60 64 66 68 0 0 1 17 59 0 58 56 41 33 46 23 0 63 -15 58 82 0
 41 69 0 17 41 0 58 59 22 40 39 70 0 46 +17 46 0 44 43 63 40 59 23 0 47 +16 23 7
6 0 ?46 10 71 18 0 0 1 17 63 0 44 46 45 33 29 64 0 0 -15 44 80 0 43 72 0 17 45 0
 44 63 43 25 49 71 0 30 -16 64 10 0 ?29 31 61 73 0 0 1 16 31 13 0 ?24 74 64 75 0
 0 1 30 73 11 0 64 68 75 0 +.005 .005 -.005 0 0 -1 30 68 8 0 61 76 73 0 +-.005 .
005 .005 1 0 0 30 75 14 0 31 73 77 0 +-.005 .005 -.005 -1 0 0 30 77 69 0 78 75 7
9 0 +-.005 -.005 -.005 867361737988404e-31 0 1 16 78 57 0 ?80 70 0 77 0 0 1 30 7
9 68 0 70 77 81 0 +-.005 -.005 .005 1 0 0 16 70 53 0 ?41 48 78 79 0 0 1 30 81 67
 0 48 79 82 0 +.005 -.005 -.005 0 0 -1 16 48 49 0 ?43 54 70 81 0 0 1 30 82 66 0
 54 81 83 0 +-.005 -.005 -.005 -1 0 0 16 54 45 0 ?50 66 48 82 0 0 1 30 83 86 0 7
4 82 84 0 +-.005 .005 -.005 0 -1 0 16 74 74 0 ?55 71 31 83 0 0 1 30 84 87 0 71 8
3 18 0 +.005 .005 -.005 0 -1 0 16 71 75 0 ?49 23 74 84 0 0 1 30 18 88 0 23 84 7
 0 +.005 .005 .005 0 -1 0 17 49 0 52 50 30 42 45 71 0 53 +15 52 78 0 50 85 0 17
 30 0 52 49 32 25 24 31 0 0 -17 53 0 86 47 87 42 50 54 0 0 -15 86 44 0 87 88 0 1
7 47 0 86 39 53 40 43 48 0 0 -17 87 0 86 53 39 19 80 78 0 0 -17 39 0 86 87 47 37
 41 70 0 22 -17 80 0 89 67 55 37 87 78 0 0 +15 89 84 0 80 15 0 17 67 0 89 65 80
 51 22 10 0 0 -17 55 0 89 80 65 19 32 74 0 87 +17 65 0 89 55 67 11 28 66 0 0 -17
 32 0 52 30 50 11 55 74 0 65 -16 66 4 0 ?28 61 54 76 0 0 1 30 76 5 0 66 0 68 0 +
-.005 .005 -.005 867361737988404e-31 0 1 17 22 0 58 41 56 37 67 10 0 80 +14 255
 15 85 90 ?69 0 89 5 6 -0 0 69 0 21 81 1 90 186 91 15 92 0 0 93 94 14 69 83 93 ?
72 15 58 5 17 -0 0 72 15 21 13 21 29 0 0 0 0 0 0 9 15 81 1 93 187 91 69 95 0 90
 96 97 14 72 81 96 ?85 69 44 5 98 -0 0 85 69 21 50 17 92 0 69 98 6 0 +-.005 .005
 .005 0 0 -1 -1 0 0 50 98 91 0 72 99 17 0 +.005 .005 -.005 -1 0 0 0 0 1 50 99 90
 0 85 100 98 0 +-.005 .005 -.005 0 0 1 1 0 0 14 85 79 101 ?62 72 52 5 99 -0 0 62
 72 21 50 100 65 0 88 102 99 0 +0 -.005 0 0 1 0 0 0 1 14 88 43 103 ?0 62 86 5 10
0 -0 0 0 62 21 50 102 2 0 62 0 100 0 +0 .005 0 0 1 0 0 0 1 14 62 1 104 ?88 85 27
 5 102 +0 0 88 85 21 81 1 104 191 91 62 105 0 103 0 106 80 255 1 91 107 108 9000
 1 1 1 1 1 1 1 1 0 FFFFTFTFFFFFFF1 81 1 105 170 109 62 0 104 110 111 112 81 1 10
3 190 91 88 111 0 101 104 113 82 255 1 106 -1810628480 81 1 111 171 109 88 0 103
 105 0 114 81 1 101 189 91 85 110 0 96 103 115 82 1 113 -1804992384 81 1 110 169
 109 85 0 101 116 105 117 81 1 96 188 91 72 116 0 93 101 118 82 1 115 -180407488
0 81 1 116 168 109 72 0 96 95 110 119 82 1 118 -1803812736 80 1 109 0 120 8001 0
 0 0 0 3 5 0 0 0 FFFFTFTFFFFFFF2 81 1 95 167 109 69 0 93 92 116 121 83 255 3 119
 .776470588235294 .756862745098039 .737254901960784 81 1 92 166 109 15 0 90 0 95
 122 83 3 121 .776470588235294 .756862745098039 .737254901960784 83 3 122 .77647
0588235294 .756862745098039 .737254901960784 79 255 15 120 SDL/TYSA_COLOUR83 3 1
17 .776470588235294 .756862745098039 .737254901960784 83 3 114 .776470588235294
 .756862745098039 .737254901960784 83 3 112 .776470588235294 .756862745098039 .7
37254901960784 79 14 108 SWEntUnchanged82 1 97 -1803550592 82 1 94 -1803288448 1
9 16 95 0 1 0 9 5 S0 74 4 CI16 index_map_offset0 0 1 dCCZ20 14 3 0 0 104 2 111 0
 0 0 0 0 0 0 0 0 0 0 0 0 0 0 0 0 80 2 12 123 124 8004 0 0 0 0 3 5 0 0 0 FFTFFFFF
FFFFFF2 3 83 1 13 8000.000133 79 16 124 SDL/TYSA_DENSITY1 0 
