SolidWorks IGES file using NURBS representation for surfaces            S      1
1H,,1H;,10HBox.SLDPRT,28HC:\DownLoads\1\3\Box\Box.IGS,15HSolidWorks 2015G      1
,15HSolidWorks 2015,32,308,15,308,15,10HBox.SLDPRT,1.,2,2HMM,50,0.125,  G      2
13H170913.090239,1E-008,499990.,8Hmaksimov,,11,0,13H170913.090239;      G      3
     314       1       0       0       0                        00000200D      1
     314       0       8       1       0                               0D      2
     502       2       0       0       0                        00010000D      3
     502       0       0       2       1                               0D      4
     110       4       0       0       0                        01010000D      5
     110       0       0       1       0                               0D      6
     110       5       0       0       0                        01010000D      7
     110       0       0       1       0                               0D      8
     110       6       0       0       0                        01010000D      9
     110       0       0       1       0                               0D     10
     110       7       0       0       0                        01010000D     11
     110       0       0       1       0                               0D     12
     110       8       0       0       0                        01010000D     13
     110       0       0       1       0                               0D     14
     110       9       0       0       0                        01010000D     15
     110       0       0       1       0                               0D     16
     110      10       0       0       0                        01010000D     17
     110       0       0       1       0                               0D     18
     110      11       0       0       0                        01010000D     19
     110       0       0       1       0                               0D     20
     110      12       0       0       0                        01010000D     21
     110       0       0       1       0                               0D     22
     110      13       0       0       0                        01010000D     23
     110       0       0       1       0                               0D     24
     110      14       0       0       0                        01010000D     25
     110       0       0       1       0                               0D     26
     110      15       0       0       0                        01010000D     27
     110       0       0       1       0                               0D     28
     504      16       0       0       0                        00010000D     29
     504       0       0       3       1                               0D     30
     128      19       0       0       0                        01010000D     31
     128       0      -1       2       0                               0D     32
     508      21       0       0       0                        00010000D     33
     508       0       0       1       1                               0D     34
     510      22       0       0       0                        00010000D     35
     510       0      -1       1       1                               0D     36
     128      23       0       0       0                        01010000D     37
     128       0      -1       2       0                               0D     38
     508      25       0       0       0                        00010000D     39
     508       0       0       1       1                               0D     40
     510      26       0       0       0                        00010000D     41
     510       0      -1       1       1                               0D     42
     128      27       0       0       0                        01010000D     43
     128       0      -1       2       0                               0D     44
     508      29       0       0       0                        00010000D     45
     508       0       0       1       1                               0D     46
     510      30       0       0       0                        00010000D     47
     510       0      -1       1       1                               0D     48
     128      31       0       0       0                        01010000D     49
     128       0      -1       2       0                               0D     50
     508      33       0       0       0                        00010000D     51
     508       0       0       1       1                               0D     52
     510      34       0       0       0                        00010000D     53
     510       0      -1       1       1                               0D     54
     128      35       0       0       0                        01010000D     55
     128       0      -1       2       0                               0D     56
     508      37       0       0       0                        00010000D     57
     508       0       0       1       1                               0D     58
     510      38       0       0       0                        00010000D     59
     510       0      -1       1       1                               0D     60
     128      39       0       0       0                        01010000D     61
     128       0      -1       2       0                               0D     62
     508      41       0       0       0                        00010000D     63
     508       0       0       1       1                               0D     64
     510      42       0       0       0                        00010000D     65
     510       0      -1       1       1                               0D     66
     514      43       0       0       0                        00010000D     67
     514       0       0       1       1                               0D     68
     186      44       0       0       0                        00000000D     69
     186       0       0       1       0                               0D     70
314,77.6470588235294,75.6862745098039,73.7254901960784,;               1P      1
502,8,5.,-5.,5.,5.,-5.,-5.,-5.,5.,5.,-5.,5.,-5.,5.,5.,5.,-5.,          3P      2
-5.,5.,-5.,-5.,-5.,5.,5.,-5.;                                          3P      3
110,-5.,-5.,5.,5.,-5.,5.;                                              5P      4
110,5.,-5.,5.,5.,-5.,-5.;                                              7P      5
110,5.,5.,5.,5.,-5.,5.;                                                9P      6
110,5.,-5.,-5.,-5.,-5.,-5.;                                           11P      7
110,-5.,5.,5.,5.,5.,5.;                                               13P      8
110,5.,5.,5.,5.,5.,-5.;                                               15P      9
110,5.,5.,-5.,5.,-5.,-5.;                                             17P     10
110,-5.,5.,5.,-5.,-5.,5.;                                             19P     11
110,5.,5.,-5.,-5.,5.,-5.;                                             21P     12
110,-5.,5.,-5.,-5.,5.,5.;                                             23P     13
110,-5.,-5.,-5.,-5.,-5.,5.;                                           25P     14
110,-5.,5.,-5.,-5.,-5.,-5.;                                           27P     15
504,12,5,3,6,3,1,7,3,1,3,2,9,3,5,3,1,11,3,2,3,7,13,3,3,3,5,15,        29P     16
3,5,3,8,17,3,8,3,2,19,3,3,3,6,21,3,8,3,4,23,3,4,3,3,25,3,7,3,6,       29P     17
27,3,4,3,7;                                                           29P     18
128,1,1,1,1,0,0,1,0,0,0.,0.,1.,1.,0.,0.,1.,1.,1.,1.,1.,1.,-5.,        31P     19
-5.,5.,-5.,-5.,-5.,-5.,5.,5.,-5.,5.,-5.,0.,1.,0.,1.;                  31P     20
508,4,0,29,11,1,0,0,29,8,0,0,0,29,10,0,0,0,29,12,1,0;                 33P     21
510,31,1,1,33;                                                        35P     22
128,1,1,1,1,0,0,1,0,0,0.,0.,1.,1.,0.,0.,1.,1.,1.,1.,1.,1.,5.,         37P     23
-5.,5.,-5.,-5.,5.,5.,5.,5.,-5.,5.,5.,0.,1.,0.,1.;                     37P     24
508,4,0,29,1,1,0,0,29,3,0,0,0,29,5,0,0,0,29,8,1,0;                    39P     25
510,37,1,1,39;                                                        41P     26
128,1,1,1,1,0,0,1,0,0,0.,0.,1.,1.,0.,0.,1.,1.,1.,1.,1.,1.,5.,         43P     27
-5.,-5.,5.,-5.,5.,5.,5.,-5.,5.,5.,5.,0.,1.,0.,1.;                     43P     28
508,4,0,29,2,1,0,0,29,7,0,0,0,29,6,0,0,0,29,3,1,0;                    45P     29
510,43,1,1,45;                                                        47P     30
128,1,1,1,1,0,0,1,0,0,0.,0.,1.,1.,0.,0.,1.,1.,1.,1.,1.,1.,-5.,        49P     31
-5.,-5.,5.,-5.,-5.,-5.,5.,-5.,5.,5.,-5.,0.,1.,0.,1.;                  49P     32
508,4,0,29,4,1,0,0,29,12,0,0,0,29,9,0,0,0,29,7,1,0;                   51P     33
510,49,1,1,51;                                                        53P     34
128,1,1,1,1,0,0,1,0,0,0.,0.,1.,1.,0.,0.,1.,1.,1.,1.,1.,1.,-5.,        55P     35
5.,-5.,-5.,5.,5.,5.,5.,-5.,5.,5.,5.,0.,1.,0.,1.;                      55P     36
508,4,0,29,10,1,0,0,29,5,1,0,0,29,6,1,0,0,29,9,1,0;                   57P     37
510,55,1,1,57;                                                        59P     38
128,1,1,1,1,0,0,1,0,0,0.,0.,1.,1.,0.,0.,1.,1.,1.,1.,1.,1.,-5.,        61P     39
-5.,-5.,-5.,-5.,5.,5.,-5.,-5.,5.,-5.,5.,0.,1.,0.,1.;                  61P     40
508,4,0,29,11,0,0,0,29,4,0,0,0,29,2,0,0,0,29,1,0,0;                   63P     41
510,61,1,1,63;                                                        65P     42
514,6,35,1,41,1,47,1,53,1,59,1,65,1;                                  67P     43
186,67,1,0;                                                           69P     44
S      1G      3D     70P     44                                        T      1
