<?xml version="1.0" encoding="utf-8"?>
<!-- Generator: Adobe Illustrator 15.0.0, SVG Export Plug-In . SVG Version: 6.00 Build 0)  -->
<!DOCTYPE svg PUBLIC "-//W3C//DTD SVG 1.1//EN" "http://www.w3.org/Graphics/SVG/1.1/DTD/svg11.dtd">
<svg version="1.1" id="Layer_1" xmlns="http://www.w3.org/2000/svg" xmlns:xlink="http://www.w3.org/1999/xlink" x="0px" y="0px"
	 width="30px" height="20px" viewBox="0 0 30 20" enable-background="new 0 0 30 20" xml:space="preserve">
<g>
	<g>
		<g>
			<path fill="#B8B8B8" d="M0,20L0.1,4.9c0,0,3.3-4,7.7-4.9c0,0,0.7,3.5,3.3,4.5c0,0,0.1,3.2,1.7,4.5c0,0,0.7-0.8,1.1-0.6
				c0.4,0.2,0.9,1.2,1.9,0.7c0,0,8.5-1.7,14.4,1.8V20H0z M6.6,16.2C6.6,16.2,6.6,16.2,6.6,16.2l0,3.2h2.2l0-2.9
				c0-0.1,0.1-0.2,0.1-0.3c0-0.5-0.5-1-1.1-1c-0.6,0-1,0.4-1.1,0.8h0V16.2C6.6,16.2,6.6,16.2,6.6,16.2z M6.6,11.4
				C6.6,11.4,6.6,11.4,6.6,11.4l0,2.9h2.1l0-2.6c0-0.1,0.1-0.2,0.1-0.3c0-0.5-0.5-0.9-1.1-0.9c-0.6,0-1,0.3-1.1,0.7h0V11.4
				C6.6,11.4,6.6,11.4,6.6,11.4z M3.6,16.5C3.6,16.5,3.6,16.5,3.6,16.5l0,2.9h1.9l0-2.6c0-0.1,0.1-0.2,0.1-0.3c0-0.5-0.4-0.9-1-0.9
				c-0.5,0-0.9,0.3-1,0.7h0V16.5C3.6,16.5,3.6,16.5,3.6,16.5z M1.8,7.3c-0.5,0-0.8,0.2-0.9,0.6h0V8c0,0,0,0,0,0c0,0,0,0,0,0l0,2.3
				h1.8l0-2.1c0-0.1,0.1-0.2,0.1-0.2C2.7,7.6,2.3,7.3,1.8,7.3z M1.8,11.9c-0.5,0-0.8,0.3-0.9,0.6h0v0.1c0,0,0,0,0,0c0,0,0,0,0,0
				l0,2.3h1.8l0-2.1c0-0.1,0.1-0.2,0.1-0.2C2.7,12.2,2.3,11.9,1.8,11.9z M1.8,16c-0.5,0-0.9,0.3-1,0.7h0v0.1c0,0,0,0,0,0
				c0,0,0,0,0,0l0,2.6h1.9l0-2.3c0-0.1,0.1-0.2,0.1-0.3C2.8,16.4,2.3,16,1.8,16z M3.4,11.9V12c0,0,0,0,0,0s0,0,0,0l0,2.5h2l0-2.3
				c0-0.1,0.1-0.2,0.1-0.3c0-0.4-0.5-0.8-1-0.8C3.9,11.2,3.5,11.5,3.4,11.9L3.4,11.9z M4.6,6.7c-0.5,0-0.9,0.3-1,0.6h0v0.1
				c0,0,0,0,0,0s0,0,0,0l0,2.5h1.9l0-2.3c0-0.1,0.1-0.2,0.1-0.3C5.6,7,5.2,6.7,4.6,6.7z M7.8,6.1c-0.6,0-1.1,0.3-1.2,0.7h0l0,0.1
				c0,0,0,0,0,0s0,0,0,0l0,2.7H9l0-2.4C9,7.1,9,7,9,6.9C9,6.5,8.5,6.1,7.8,6.1z M11.2,9.9c-0.6,0-1.1,0.3-1.2,0.8h0l0,0.1
				c0,0,0,0,0,0c0,0,0,0,0,0l0,3.2h2.3l0-2.9c0-0.1,0.1-0.2,0.1-0.3C12.3,10.4,11.8,9.9,11.2,9.9z M11.3,14.8
				c-0.6,0-1.1,0.4-1.2,0.9h0l0,0.1c0,0,0,0,0,0c0,0,0,0,0,0l0,3.5h2.4l0-3.1c0-0.1,0.1-0.2,0.1-0.4C12.5,15.3,11.9,14.8,11.3,14.8z
				 M15,14.7c-0.6,0-1.2,0.4-1.3,0.9h0v0.2c0,0,0,0,0,0s0,0,0,0l0,3.6h2.5l0-3.3c0.1-0.1,0.1-0.2,0.1-0.4
				C16.3,15.1,15.7,14.7,15,14.7z M21.4,9.9c-0.6,0-1.1,0.3-1.1,0.8h0l0,0.1c0,0,0,0,0,0c0,0,0,0,0,0l0,3.2h2.3l0-2.9
				c0-0.1,0.1-0.2,0.1-0.3C22.5,10.4,22,9.9,21.4,9.9z M21.5,14.8c-0.6,0-1.1,0.4-1.2,0.9h0v0.1c0,0,0,0,0,0c0,0,0,0,0,0l0,3.5h2.4
				l0-3.1c0-0.1,0.1-0.2,0.1-0.4C22.7,15.3,22.1,14.8,21.5,14.8z M23.7,16.1l0,0.1c0,0,0,0,0,0c0,0,0,0,0,0l0,3.1h2.1l0-2.8
				c0-0.1,0.1-0.2,0.1-0.3c0-0.5-0.5-0.9-1.1-0.9C24.2,15.3,23.8,15.7,23.7,16.1L23.7,16.1L23.7,16.1z M24.9,10.5
				c-0.6,0-1,0.3-1.1,0.8h0l0,0.1c0,0,0,0,0,0c0,0,0,0,0,0l0,3H26l0-2.7c0-0.1,0.1-0.2,0.1-0.3C26,10.9,25.5,10.5,24.9,10.5z
				 M27.9,11.3c-0.5,0-0.9,0.3-1,0.7h0l0,0.1c0,0,0,0,0,0c0,0,0,0,0,0l0,2.6h1.9l0-2.4c0-0.1,0.1-0.2,0.1-0.3
				C28.9,11.6,28.5,11.3,27.9,11.3z M27.9,15.6c-0.5,0-0.9,0.3-1,0.7h0l0,0.1c0,0,0,0,0,0s0,0,0,0l0,2.9h1.9l0-2.6
				c0-0.1,0.1-0.2,0.1-0.3C28.9,16,28.5,15.6,27.9,15.6z"/>
		</g>
	</g>
</g>
</svg>
