<?xml version="1.0" encoding="UTF-8" standalone="no"?>
<!-- Generator: Adobe Illustrator 18.1.0, SVG Export Plug-In . SVG Version: 6.00 Build 0)  -->

<svg
   xmlns:dc="http://purl.org/dc/elements/1.1/"
   xmlns:cc="http://creativecommons.org/ns#"
   xmlns:rdf="http://www.w3.org/1999/02/22-rdf-syntax-ns#"
   xmlns:svg="http://www.w3.org/2000/svg"
   xmlns="http://www.w3.org/2000/svg"
   xmlns:sodipodi="http://sodipodi.sourceforge.net/DTD/sodipodi-0.dtd"
   xmlns:inkscape="http://www.inkscape.org/namespaces/inkscape"
   version="1.1"
   id="Livello_1"
   x="0px"
   y="0px"
   viewBox="0 0 291.5 80"
   enable-background="new 0 0 300 86.7"
   xml:space="preserve"
   inkscape:version="0.48.4 r9939"
   width="100%"
   height="100%"
   sodipodi:docname="docsity.svg"><metadata
     id="metadata3069"><rdf:RDF><cc:Work
         rdf:about=""><dc:format>image/svg+xml</dc:format><dc:type
           rdf:resource="http://purl.org/dc/dcmitype/StillImage" /></cc:Work></rdf:RDF></metadata><defs
     id="defs3067" /><sodipodi:namedview
     pagecolor="#ffffff"
     bordercolor="#666666"
     borderopacity="1"
     objecttolerance="10"
     gridtolerance="10"
     guidetolerance="10"
     inkscape:pageopacity="0"
     inkscape:pageshadow="2"
     inkscape:window-width="1920"
     inkscape:window-height="990"
     id="namedview3065"
     showgrid="false"
     inkscape:zoom="5.8933333"
     inkscape:cx="150"
     inkscape:cy="46.913348"
     inkscape:window-x="-2"
     inkscape:window-y="32"
     inkscape:window-maximized="1"
     inkscape:current-layer="Livello_1" /><g
     id="g3071"
     transform="translate(-4.2420815,-4.4692318)"><path
       id="path3048"
       d="M 99.4,59.8 C 98,56.5 94.3,52.3 87.5,47.6 80,42.5 72,43.7 72,43.7 c -2.4,-4 -6.4,-2.1 -6.7,-1.7 -0.3,0.3 -2.2,1.2 -2.1,3.8 0.1,2.8 2.2,4.3 2.2,4.3 -0.5,0.6 -1.4,5.5 0.5,12.4 1.9,6.9 7.8,13.2 7.8,13.2 0,0 4.7,4.5 8,4.8 3.3,0.3 4.3,-0.4 6.3,-2.5 2,-2.2 1.4,-7.5 1.4,-7.5 0.9,0.5 3.7,0.5 4.7,0.4 1,-0.1 5,-0.2 6,-3.1 0.9,-3 0.7,-4.6 -0.7,-8 m -24.8,7.4 c -1.3,0 -2.2,-0.9 -2.2,-2.2 0,-1.3 1,-2.2 2.3,-2.2 1.3,0 2.1,1 2.1,2.3 0,1.2 -1,2.1 -2.2,2.1 m 1.6,-11.5 c 0,-1.4 1,-2.5 2.5,-2.5 1.5,0 2.5,0.9 2.5,2.4 0,1.4 -0.9,2.3 -2.4,2.3 -1.5,0 -2.6,-0.8 -2.6,-2.2 m 5.6,19.9 c -0.9,0 -1.6,-0.8 -1.6,-1.7 0,-0.9 0.7,-1.7 1.6,-1.7 0.9,0 1.6,0.8 1.6,1.7 0,0.9 -0.8,1.7 -1.6,1.7 m 5,-12.1 c -0.9,0 -1.6,-0.6 -1.6,-1.6 0,-1 0.7,-1.6 1.6,-1.6 0.9,0 1.5,0.6 1.5,1.6 0,0.9 -0.6,1.6 -1.5,1.6 m 9.2,3.1 c -0.7,0 -1.1,-0.5 -1.1,-1.2 0,-0.7 0.5,-1.2 1.2,-1.2 0.7,0 0.9,0.5 0.9,1.2 0.1,0.7 -0.3,1.2 -1,1.2"
       inkscape:connector-curvature="0"
       style="fill:#bd1622" /><path
       id="path3050"
       d="m 189,43.5 c 0.3,0 2.6,0 2.6,0 3.4,0.1 3.4,4.5 3.4,4.5 0.3,9.1 -0.1,19.3 -0.1,19.3 -1.1,1.3 -2.1,1.4 -3,1.7 -1.7,0.5 -2.9,0.6 -2.9,0.6 0,0 -0.1,1.1 0,1.3 0.1,0.2 1.2,1.1 1.2,1.1 0.3,0.1 3.3,0.1 5,0.1 1.6,0 7.2,0.3 9.1,-0.4 1.9,-0.7 3,-1.5 2.9,-2.5 -0.1,-1 -2.7,-1.6 -3.8,-1.6 -1.1,-0.1 -3.4,-0.5 -3.4,-1.7 0,-1.2 -0.1,-16.2 0,-18.6 0.1,-2.5 -1.3,-7.2 -1.3,-7.2 -1.6,-0.5 -9,0.4 -9.7,0.9 l 0,2.5 z"
       inkscape:connector-curvature="0"
       style="fill:#054164" /><path
       id="path3052"
       d="m 199.4,29.6 c -1.4,0 -6.5,-0.4 -6.7,2 -0.2,2.5 0.5,3.6 1.7,4.4 1.2,0.8 3.2,0.3 3.7,0 0.3,-0.2 1.2,-1 1.3,-2.9 0,-1.2 0,-3.5 0,-3.5"
       inkscape:connector-curvature="0"
       style="fill:#054164" /><path
       id="path3054"
       d="m 216.7,21.7 c 0.1,1.6 2.5,1.4 8.9,1.5 6,0.1 6.5,1.5 6.2,2.9 0,0 -0.3,2.1 -2.2,2.7 -3.2,0.9 -4,0.9 -6.1,0.7 -2.1,-0.2 -5.2,0.1 -5.7,1.9 -0.6,2.3 -1.6,11 -1.7,13.7 -0.1,2.7 -0.9,9.1 0.4,12.5 0.9,2.5 2.7,6.2 6.2,6.8 3.5,0.6 5.8,-3.7 7.6,-6.7 1.6,-2.8 2.2,-9.6 2.2,-9.6 l 2.7,0 v 16 c 0,2.6 -0.9,3.4 -2.2,4.3 -1.3,0.9 -4.1,1.8 -11.1,1.1 -7,-0.6 -9.3,-2.6 -10.8,-4.7 -1.5,-2.1 -1.3,-6.7 -0.1,-9.5 1.2,-2.8 1.3,-4.2 1.1,-5.5 -0.2,-1.3 -1.8,-4.1 -1.8,-5.3 0,-1.2 -0.3,-5.8 0.1,-10 0.4,-4.2 -1.4,-3.7 -1.6,-4.2 -0.2,-0.5 -5.1,-1.6 -5.9,-2 -0.8,-0.4 -1.5,-1.7 -1.3,-3.7 0.3,-2 6.9,-3.4 6.9,-3.4 -0.1,-1.7 0.6,-8.3 2,-10.6 1.4,-2.3 2.6,-2.4 6.2,-2.4 v 13.5 z"
       inkscape:connector-curvature="0"
       style="fill:#054164" /><path
       id="path3056"
       d="m 146,62.7 c 0,0 -0.2,17.8 -0.1,19.3 0.1,1.5 3.7,2.9 4.2,2.2 0.4,-0.6 3,-3.5 3.6,-3.9 0,0 4.4,2.1 5.7,2.1 0.3,0 2.5,0.1 8.9,0 6.4,-0.1 11,-1.8 13.5,-3.8 1.2,-0.9 4.1,-2.2 4.6,-9.9 0.5,-7.8 -3.3,-10.8 -4.1,-11.8 -5.5,-5.9 -17.1,-5.9 -21.1,-7.2 -3.5,-1.2 -3.6,-3.4 -3.8,-4.7 -0.8,-5.9 2.9,-7.4 4.7,-8.1 4,-1.5 9.9,-1 13.5,2.2 3,2.7 4.7,10.9 4.7,10.9 0.4,0.1 2.7,0.6 4.5,-2 1.6,-2.3 1.2,-5.5 1.5,-8.1 0.2,-2.5 -0.2,-6.7 -0.4,-8.4 -0.2,-1.7 -1.7,-2.9 -2.3,-3 -0.7,-0.1 -1.6,0.4 -2.3,0.7 -0.7,0.3 -2.1,1.5 -3.5,1.5 -5.3,-0.2 -7.1,-1.9 -10,-2 -5.2,0 -10.1,1.6 -13.3,4.5 -7.5,6.8 -5,17.9 -4.6,18.4 l 1.4,1.5 2.5,2.4 c 23.4,6.5 24.8,7.2 24.8,12.9 0,1.9 -2.8,6.4 -5,6.3 0,0 -6.8,0 -9.9,0 -8.3,0.1 -10.9,-4.9 -12,-13.6 0,0.1 -5.1,-0.6 -5.7,1.6"
       inkscape:connector-curvature="0"
       style="fill:#054164" /><path
       id="path3058"
       d="m 239.8,9.9 c -3.3,-0.3 -2.3,5.3 -2.3,5.3 9.3,4.5 13,10.1 14.5,13 1.5,2.9 7.2,11.9 8.8,22.9 0.8,5.8 2.2,10.6 -4.1,16.1 -2.9,2.5 -10.1,4.3 -10.1,-0.7 -0.1,-5.6 -1.3,-6.1 -4.7,-6.3 -2.5,-0.1 -5,1.3 -4.1,6.3 0.8,5 1.7,8.4 8.7,10 7.7,1.7 16.7,-3.7 23.2,-14.8 4.8,-8.2 13.9,-33.3 18.6,-48.2 0,0 3.5,0.6 5.5,-0.2 2.4,-0.9 2.4,-4.6 0.4,-5.2 h -22.6 c -1.4,0.4 -2,4.8 -0.7,5.2 2.6,0.8 6.3,0.8 6.8,2.3 0.9,3.1 -6.1,30.7 -11,28.5 0,0 -8.9,-22.1 -9,-23.3 -0.5,-4.4 0.1,-5.1 0.4,-5.5 0.3,-0.4 2.3,-1.4 4.1,-1.9 1.9,-0.5 2.7,-2.9 2.4,-3.8 l -24.8,0.3 z"
       inkscape:connector-curvature="0"
       style="fill:#054164" /><path
       id="path3060"
       d="m 136.1,62.4 c -2.2,3.3 -5.6,10.9 -12.3,11.8 0,0 -13.1,0.8 -13.5,-20.2 -0.3,-17 13.1,-23.8 21.8,-19.5 0,0 2.7,1 3.1,5.2 l -3.9,5.4 c 0,0 -0.4,3.8 2.4,5 2.7,1.2 7.7,2.8 9.5,-4.4 1.8,-7.3 -2,-12.6 -2.3,-12.8 -3.6,-4 -9.6,-7.2 -22.9,-4.5 -13.2,2.6 -16.5,18.5 -16.5,18.5 0,0 -6.3,-13 -20.2,-13.2 -10.5,-0.4 -24,7.2 -25.4,20.3 -1.3,11.4 1.6,15.5 2.4,19 l -5,-1.9 C 52.9,51.6 54.1,39.7 54.1,39.7 55.3,23 55.3,7.9 55.3,7.9 51.5,3.7 36.8,5.1 36.8,5.1 v 6.3 c 4,0 8.3,1 8.2,2.5 -0.1,1.5 0,14.5 0,14.5 0,0 -3.7,-4.6 -13.9,-4.5 C 20.8,24 13.9,28.4 11.3,31.7 8.8,35.1 6.5,38 5.6,42.9 4.7,47.8 3.2,53.5 6.2,62.7 c 2.9,9.1 10.5,13.8 12,14.5 1.5,0.7 6.7,3.1 13,2.2 6.3,-0.9 6.8,-2.3 10.7,-2.3 4,0 7.6,1.9 8.8,2.1 1.2,0.2 4,0.6 10.6,0 l 0.2,-1.6 c 0,0 6.7,7.6 19.8,6.2 13.1,-1.3 18.1,-4.3 21.5,-15.8 0,0 6.6,12.7 21.7,12.3 15.2,-0.5 18.9,-10.5 19.3,-21.7 0.1,0 -4.7,-0.8 -7.7,3.8 M 43.2,48.7 C 43,68.4 38.8,71 28.4,71.5 23.2,71.8 14,66 14.6,52.3 15,43.9 17.8,39.7 19.1,38 c 5.6,-7.2 16.8,-7.4 20.8,-4.1 2.8,2.2 3.5,4 3.3,14.8 M 82,82.7 C 64.4,83 59.4,72.5 59.4,72.5 58.7,69.3 55.8,64.4 57,53.7 58.4,41.3 69.9,34.8 81.2,34.8 c 14.1,0 19,12.1 19,12.1 6.7,15.8 1.6,35.5 -18.2,35.8"
       inkscape:connector-curvature="0"
       style="fill:#054164" /><path
       id="path3062"
       d="m 104.5,58.2 c -0.1,-4.1 -2.8,-11.9 -2.8,-11.9 0,0 -5.4,-12.9 -20.3,-12.9 -12,0 -24.3,7.6 -25.8,20.6 -1.1,10.2 0.9,14.5 1.9,17.7 1.2,3.1 2.6,4.7 4.5,6.8 0.3,0.3 1.2,1.1 2.6,1.9 0,0 0,0 0.1,0 0,0 0,0 -0.1,0 3.1,1.9 8.9,4.4 17.1,3.5 13,-1.3 17.9,-4.1 21.3,-15.6 0.1,0.2 1.6,-6 1.5,-10.1 z M 82,82.7 C 64.5,83 59.5,72.6 59.5,72.6 58.8,69.4 55.9,64.5 57.1,53.8 58.4,41.5 69.9,35 81.2,35 c 14,0 19,12 19,12 6.6,15.8 1.5,35.4 -18.2,35.7 z"
       inkscape:connector-curvature="0"
       style="fill:#054164" /><rect
       height="83.699997"
       width="295"
       y="3.2"
       x="2.3"
       id="_x3C_Sezione_x3E__3_"
       style="fill:none" /></g></svg>